<?xml version="1.0" encoding="UTF-8" standalone="no"?>
<svg
   xmlns:dc="http://purl.org/dc/elements/1.1/"
   xmlns:cc="http://creativecommons.org/ns#"
   xmlns:rdf="http://www.w3.org/1999/02/22-rdf-syntax-ns#"
   xmlns:svg="http://www.w3.org/2000/svg"
   xmlns="http://www.w3.org/2000/svg"
   xmlns:sodipodi="http://sodipodi.sourceforge.net/DTD/sodipodi-0.dtd"
   xmlns:inkscape="http://www.inkscape.org/namespaces/inkscape"
   width="240mm"
   height="370mm"
   viewBox="0 0 240 370"
   version="1.1"
   id="svg8"
   inkscape:version="1.0.2 (e86c870879, 2021-01-15, custom)"
   sodipodi:docname="board.svg">
  <defs
     id="defs2" />
  <sodipodi:namedview
     id="base"
     pagecolor="#ffffff"
     bordercolor="#666666"
     borderopacity="1.0"
     inkscape:pageopacity="0.0"
     inkscape:pageshadow="2"
     inkscape:zoom="0.5"
     inkscape:cx="400"
     inkscape:cy="743.07219"
     inkscape:document-units="mm"
     inkscape:current-layer="layer1"
     inkscape:document-rotation="0"
     showgrid="false"
     inkscape:window-width="1440"
     inkscape:window-height="837"
     inkscape:window-x="-8"
     inkscape:window-y="-8"
     inkscape:window-maximized="1" />
  <metadata
     id="metadata5">
    <rdf:RDF>
      <cc:Work
         rdf:about="">
        <dc:format>image/svg+xml</dc:format>
        <dc:type
           rdf:resource="http://purl.org/dc/dcmitype/StillImage" />
        <dc:title></dc:title>
      </cc:Work>
    </rdf:RDF>
  </metadata>
  <g
     inkscape:label="Layer 1"
     inkscape:groupmode="layer"
     id="layer1">
    <rect
       style="opacity:0.998;fill:none;stroke:#000000;stroke-width:0.5;stroke-linecap:round;stroke-linejoin:round;stroke-miterlimit:4;stroke-dasharray:none;stroke-opacity:1"
       id="rect833"
       width="64.729965"
       height="89.729958"
       x="87.635017"
       y="52.977283" />
    <rect
       style="opacity:0.998;fill:none;stroke:#000000;stroke-width:0.5;stroke-linecap:round;stroke-linejoin:round;stroke-miterlimit:4;stroke-dasharray:none;stroke-opacity:1"
       id="rect867"
       width="64.729965"
       height="89.729958"
       x="164.09961"
       y="251.94395" />
    <rect
       style="opacity:0.998;fill:none;stroke:#000000;stroke-width:0.5;stroke-linecap:round;stroke-linejoin:round;stroke-miterlimit:4;stroke-dasharray:none;stroke-opacity:1"
       id="rect869"
       width="64.729965"
       height="89.729958"
       x="87.63501"
       y="251.94395" />
    <rect
       style="opacity:0.998;fill:none;stroke:#000000;stroke-width:0.5;stroke-linecap:round;stroke-linejoin:round;stroke-miterlimit:4;stroke-dasharray:none;stroke-opacity:1"
       id="rect871"
       width="64.729965"
       height="89.729958"
       x="11.170433"
       y="251.94395" />
    <rect
       style="opacity:0.998;fill:none;stroke:#000000;stroke-width:0.5;stroke-linecap:round;stroke-linejoin:round;stroke-miterlimit:4;stroke-dasharray:none;stroke-opacity:1"
       id="rect873"
       width="64.729965"
       height="89.729958"
       x="125.47043"
       y="152.46062" />
    <rect
       style="opacity:0.998;fill:none;stroke:#000000;stroke-width:0.5;stroke-linecap:round;stroke-linejoin:round;stroke-miterlimit:4;stroke-dasharray:none;stroke-opacity:1"
       id="rect875"
       width="64.729965"
       height="89.729958"
       x="49.799603"
       y="152.46062" />
    <g
       aria-label="*Tightrope"
       id="text888"
       style="font-size:31.75px;line-height:1.25;font-family:'Armalite Rifle';-inkscape-font-specification:'Armalite Rifle';stroke-width:0.264583"
       transform="translate(1.8785295,22.225)">
      <path
         d="m 39.079784,-1.6443443 h 2.046387 l 0.37207,0.3720703 v 0.1860351 l -0.186035,0.1860352 0.372071,1.6743164 V 1.146183 h -0.186036 l 0.186036,1.8603516 v 0.7441406 l -0.186036,5.3950195 0.186036,0.1860352 V 9.517765 l -0.186036,0.744141 v 0.930175 l 0.186036,1.116211 -0.186036,0.186036 v 0.186035 l 0.372071,3.162597 -0.186035,0.558106 q 2.046386,0.418579 2.046386,0.74414 -0.310058,2.418457 -0.930175,2.418457 l -4.092774,0.372071 -0.186035,-0.186035 h -0.186035 l -0.744141,0.186035 Q 35.917187,19.81171 35.917187,19.563663 l -0.186035,0.186036 H 34.987011 Q 33.8708,18.773014 33.8708,17.889347 v -0.37207 q 1.612305,-1.116211 2.604492,-1.116211 V 15.84296 h -0.558105 v -0.558105 l -0.186035,-0.744141 0.186035,-0.186035 V 14.168644 L 35.731152,11.564152 V 11.378117 L 35.917187,10.447941 35.731152,9.3317299 V 6.1691322 L 35.545116,5.4249916 35.917187,2.8204994 35.731152,2.6344643 q 0,-3.9067383 1.302246,-3.9067383 z m -7.999511,0.1860351 1.116211,0.3720703 h 1.488281 l 0.930176,-0.1860351 0.186035,0.1860351 v 0.55810551 q 0,1.44177246 -2.418457,3.16259769 L 30.708202,5.9830971 Q 28.847851,5.7970619 28.847851,5.4249916 V 3.7506752 L 29.033886,3.0065346 28.847851,2.4484291 29.219921,0.96014786 29.033886,-0.15606308 V -0.9002037 q 0,-0.3720703 2.046387,-0.5581055 z m 11.720215,0.1860352 h 0.37207 l 0.186035,0.1860351 0.186035,-0.1860351 h 0.930176 q 1.302246,0.062012 1.302246,0.3720703 l 0.930176,-0.1860352 h 0.558105 l 0.186035,0.1860352 h 0.186036 l -0.372071,6.1391602 q -1.178222,0 -1.860351,0.7441406 L 44.474804,3.3786049 42.428417,0.58807755 V -0.9002037 Z M 40.38203,3.56464 q 0,0.5581055 -0.37207,0.5581055 V 4.4948158 L 40.754101,4.680851 V 3.56464 Z M 39.63789,8.7736244 39.079784,9.3317299 38.893749,9.1456947 h -0.186035 v 0.5581055 l 0.186035,1.3022458 h -0.37207 l -0.186035,-0.930175 h -0.186035 q 0,0.74414 -0.372071,0.74414 l 0.186035,0.186035 v 0.558106 h -0.186035 l -0.186035,-0.186035 h -0.186035 l 0.186035,-0.930176 v -0.37207 h -0.37207 l 0.186035,0.186035 v 0.37207 h -0.186035 l -0.558106,-0.37207 -0.558105,0.186035 v 0.186035 q 0.37207,0 0.37207,0.558105 h 0.186035 v -0.37207 q 0.372071,0 0.558106,1.116211 h 0.37207 v 0.186035 l 0.186035,-0.186035 h 0.186035 l 0.186036,0.186035 0.186035,-0.186035 h 0.186035 q 0.558105,0 0.558105,0.558106 l 0.744141,-0.372071 v -0.558105 h -0.744141 v -0.186035 q 0.449585,-1.116211 1.116211,-1.116211 V 9.3317299 q -0.558105,0 -0.558105,-0.3720703 h 0.37207 V 8.7736244 Z m -2.790527,4.8369136 v 0.558106 h 0.37207 v -0.186035 z m -0.558106,0.372071 -0.186035,0.186035 v 0.37207 h 0.558105 v -0.186035 z m 1.302246,0.186035 0.186035,0.930176 -0.558105,0.37207 q 0.139526,0.976685 1.116211,1.302246 h 0.558105 q 0,-0.74414 0.558106,-0.74414 -0.139527,-1.302247 -1.302246,-1.302247 v -0.558105 z"
         style="font-size:31.75px;fill:#782121;stroke-width:0.264583"
         id="path890" />
      <path
         d="m 49.621777,-1.9699059 2.232421,0.1860352 1.488282,-0.1860352 1.488281,0.1860352 1.860352,-0.1860352 q 1.11621,0.1395264 1.11621,0.3720704 l 0.186036,-0.1860352 h 0.186035 l 0.37207,0.3720703 v 1.30224611 q 0,1.41076659 -1.860351,1.48828129 l -0.372071,3.7207031 0.186035,0.1860351 -0.186035,1.3022461 V 10.49445 l -0.186035,0.186035 v 0.186035 q 0.37207,0 0.37207,0.558105 l -0.186035,1.68982 0.186035,3.348633 h 0.558106 q 1.023193,0 1.674316,1.11621 -0.232544,2.046387 -0.930176,2.046387 L 57.621288,19.06757 h -0.37207 q 0,0.558105 -0.37207,0.558105 h -4.650879 l -1.488281,-0.37207 h -0.372071 l -1.302246,0.37207 -0.186035,-0.186035 v -1.302246 l 0.37207,-0.37207 0.186035,0.186035 v 0.186035 l 0.744141,-0.186035 v -0.558106 l -0.37207,-0.37207 h -0.930176 v -0.37207 q 0,-0.403076 2.232422,-0.930176 l 0.186035,-0.186035 q 0,-0.744141 -0.744141,-0.744141 V 10.86652 L 50.365917,9.9363441 50.551952,8.8201332 V 3.2390785 L 50.365917,1.378727 h 0.186035 Q 50.443432,0.63458633 49.249706,0.63458633 l -0.37207,-0.55810546 v -0.93017579 z m 6.697265,2.41845708 v 0.18603515 l 0.558106,0.18603516 V 0.07648087 H 56.691113 Z M 55.202831,1.9368324 v 0.5581055 h 0.558106 L 55.574902,1.9368324 Z M 53.71455,3.9832191 54.08662,4.3552895 54.644726,4.1692543 54.458691,3.6111488 H 54.08662 Z m 1.488281,1.8603516 0.186035,0.1860352 h 0.744141 V 5.4715004 h -0.558105 z m -3.534668,3.1625977 v 0.1860351 h 0.558106 L 52.040234,8.6340981 Z m 1.488282,1.8603516 0.186035,0.186035 h 0.37207 V 10.49445 h -0.186035 z m -1.116211,6.154663 -0.372071,1.116211 0.186035,0.558105 h 0.186036 l 0.74414,-1.302246 -0.186035,-0.186035 z m 4.278808,0.37207 -0.186035,1.116211 v 0.558106 h 0.186035 l 0.372071,-1.674317 z"
         style="font-size:31.75px;fill:#782121;stroke-width:0.264583"
         id="path892" />
      <path
         d="m 71.139843,-1.7838707 0.37207,0.5581055 v 0.7441406 q -0.232544,0.60461425 -3.348633,2.418457 -0.310058,2.7905274 -0.558105,2.7905274 l -0.744141,0.1860351 h -0.930175 q 0,-0.5581054 -0.372071,-0.5581054 h -1.302246 l -0.558105,0.5581054 0.186035,0.7441407 0.186035,-0.1860352 h 0.37207 q 0.372071,0 0.372071,0.5581055 h 0.37207 V 5.6575356 h 0.37207 v 0.7441406 q -0.930175,0 -0.930175,1.4882812 L 64.070507,8.2620277 Q 63.326366,7.5178871 62.768261,7.5178871 V 7.1458168 h 1.488281 V 6.5877113 q 0,-0.3720703 -0.74414,-0.3720703 L 63.326366,5.0994301 h -0.37207 q 0,0.9301758 -0.37207,0.9301758 V 4.5413246 q -1.302246,0 -1.302246,-0.3720703 0.26355,-1.3022461 0.74414,-1.3022461 h 0.186035 v 0.3720703 h 1.116211 L 64.256542,3.0530434 63.884472,2.3089027 H 63.698437 L 63.140331,2.6809731 62.768261,2.1228676 Q 63.388378,1.2702065 64.628613,0.63458633 L 65.186718,0.82062149 65.000683,0.63458633 V 0.26251602 q 2.495972,-1.86035152 5.581055,-1.86035152 z m 2.976562,0 0.744141,0.1860352 0.744141,-0.1860352 2.604492,0.7441406 h 0.37207 l 0.930176,-0.7441406 h 0.186035 q 0.418579,0 0.744141,1.86035157 h -0.186035 l 0.186035,0.18603515 V 0.44855118 L 80.255566,1.5647621 80.441601,1.7507973 Q 80.255566,5.6575356 78.767284,5.6575356 L 78.209179,6.0296059 Q 76.286816,1.378727 74.860546,1.378727 72.938183,0.63458633 72.628124,-0.10955429 V -1.2257652 q 0.124024,-0.5581055 1.488281,-0.5581055 z M 66.861034,0.44855118 V 1.0066566 L 67.233105,1.378727 67.79121,1.0066566 68.16328,1.378727 h 0.186036 V 1.0066566 L 68.535351,0.82062149 68.16328,0.44855118 H 67.977245 L 67.79121,0.63458633 H 67.605175 Z M 65.372753,2.4949379 65.186718,2.6809731 v 0.3720703 l 0.37207,0.3720703 H 67.04707 V 2.6809731 L 66.488964,2.4949379 66.302929,2.6809731 H 65.744823 L 65.558788,2.4949379 Z m 0.744141,3.3486328 h 0.558105 V 6.0296059 L 66.302929,6.4016762 66.116894,6.215641 Z m -5.39502,0.1860352 h 0.372071 l 0.74414,0.1860351 0.558106,-0.1860351 v 0.7441406 q -0.372071,0 -0.372071,0.5581055 h -0.186035 z m 6.325196,0 h 0.558105 V 7.1458168 L 67.233105,7.5178871 67.04707,7.331852 V 7.1458168 L 67.233105,6.9597816 V 6.7737465 Z m -6.325196,0.9301757 0.186035,0.1860352 V 7.331852 L 60.721874,7.5178871 H 60.535839 L 60.349804,7.331852 V 7.1458168 l 0.186035,-0.1860352 z m 4.092774,0 h 0.186035 l 0.37207,0.3720704 v 0.7441406 h -0.186035 l -0.37207,-0.3720703 z m 11.720215,1.4882813 0.930175,0.1860352 h 1.860352 l 0.74414,-0.1860352 0.744141,0.5581055 -0.186035,1.1162106 0.186035,0.186035 v 0.186036 l -0.186035,0.558105 0.186035,0.558106 -0.37207,1.860351 0.186035,0.186035 v 5.581055 q 0,0.37207 -0.558106,0.37207 -0.387573,0 -2.046386,-1.674316 l -0.558106,-0.186035 q -3.023071,1.860351 -3.906738,1.860351 l -0.558105,-1.674316 q 0.759643,-1.317749 2.046386,-2.418457 l -0.186035,-0.186035 v -0.930176 l 0.186035,-0.186035 -0.186035,-0.186035 0.186035,-0.744141 q 0,-2.046387 -1.302246,-2.046387 h -1.488281 l -0.37207,-0.37207 V 10.122379 L 72.070019,9.9363441 V 9.750309 l 3.534668,0.37207 0.558105,-0.1860349 0.186035,0.1860349 0.186036,-0.5581052 -0.186036,-0.7441406 0.186036,-0.1860351 z m -15.626954,1.4882812 0.372071,0.3720699 0.930175,-0.186035 0.186036,0.186035 h 0.186035 l -0.186035,0.186036 v 0.37207 l 0.558105,-0.186035 -0.186035,-0.186035 v -0.186036 l 0.186035,-0.186035 h 0.37207 v 0.186035 l 1.860352,-0.186035 h 1.116211 l 1.302246,0.186035 0.186035,2.790528 v 1.116211 q 0.868164,3.720703 3.720703,3.720703 0.744141,0 0.744141,1.488281 0,0.496094 -1.302246,1.116211 h -0.186035 l -0.930176,-0.186035 -0.186035,0.186035 -0.372071,-0.37207 h -0.558105 l -0.558106,0.37207 H 67.233105 Q 62.954296,18.835026 62.954296,17.37775 61.65205,16.153019 61.65205,15.517399 l 0.186035,-0.186035 h 0.186035 l 0.372071,0.37207 h 0.186035 q 0,-0.558105 -1.302246,-0.558105 -1.302246,-2.790528 -1.302246,-5.02295 l 0.186035,-0.1860349 z m 18.603516,4.8369139 0.186035,0.186035 h 0.186035 l 0.372071,-0.74414 H 80.06953 Z"
         style="font-size:31.75px;fill:#782121;stroke-width:0.264583"
         id="path894" />
      <path
         d="m 94.781811,-1.9854088 3.534668,0.3720703 0.186035,-0.1860351 h 0.186035 l 0.744141,0.1860351 h 0.37207 v -0.1860351 l 0.93018,0.1860351 2.60449,-0.1860351 0.5581,0.7441406 v 0.37207031 L 103.7115,1.1771889 h -0.74414 q -1.13172,0 -1.48828,0.9301758 0.12402,0.7441406 0.93017,0.9301757 l -0.18603,0.7441407 0.18603,2.0463867 h -0.18603 l 0.18603,0.1860351 v 0.5581055 l -0.37207,0.3720703 -0.18603,-0.1860351 V 7.316349 q 0.5581,0 0.5581,0.3720703 -0.13952,2.6044927 -0.5581,2.6044927 l -0.37207,-0.3720708 0.18603,-0.1860351 V 9.5487709 q -0.37207,0 -0.37207,-0.5581055 h -0.74414 q 0,0.5581055 -0.37207,0.5581055 h -0.186035 q 0,-1.1162109 -0.558105,-1.1162109 h -0.930176 l -0.186035,0.7441406 0.74414,1.1162114 v 0.186035 q -0.930175,0 -0.930175,0.37207 l -0.186036,0.558105 h 0.186036 q 1.674316,0 2.046386,1.674317 l 0.18604,0.186035 h 0.18603 q 0,-1.116211 0.93018,-1.116211 0,0.558106 0.74414,0.558106 l 0.18603,0.186035 v 1.674316 q 0,2.123901 1.48828,2.604492 l 0.18604,0.186035 v 0.744141 q 0,1.395264 -0.93018,1.674316 h -0.37207 v -0.186035 l -4.092771,0.186035 H 95.153881 Q 94.03767,19.470646 94.03767,18.478458 l -0.186035,-1.302246 0.930176,-0.558105 0.186035,0.186035 h 0.186035 l 0.558106,-0.186035 -0.186036,-0.744141 0.186036,-1.674316 -0.186036,-1.116211 0.186036,-1.860352 -0.186036,-0.74414 0.186036,-0.7441409 -0.186036,-0.1860352 V 8.9906654 h 0.186036 L 95.525951,5.8280678 V 2.6654701 h 0.186036 l 0.930175,0.5581055 Q 97.494823,2.8670082 97.572338,2.479435 V 2.2933998 L 96.828197,1.363224 q 0,0.8061524 -0.74414,1.116211 L 95.525951,2.2933998 V 1.363224 q 0,-0.3100586 -1.302246,-0.7441406 v -0.93017578 q 0,-0.97668452 0.558106,-1.67431642 z m -11.611695,0.3720703 0.930176,1.11621097 q 0.806153,-0.18603516 0.930176,-0.93017577 l 0.930176,-0.1860352 h 3.162597 q 0.372071,0 0.372071,0.5581055 h 0.186035 q 0,-0.5581055 0.558105,-0.5581055 l 0.186036,0.1860352 h 0.186035 l 0.74414,-0.1860352 0.372071,0.5581055 -0.186036,0.93017578 0.186036,0.55810547 q 0,0.93017575 -1.302246,0.93017575 0,1.116211 -0.372071,1.116211 l 0.186035,0.1860351 -0.186035,0.9301758 v 0.5581055 l 0.186035,0.1860351 v 0.1860352 l -0.37207,0.3720703 v 0.1860352 h 0.37207 v 1.8603515 h -0.37207 V 7.316349 l 0.186035,-0.1860351 0.186035,0.1860351 h 4.170288 l 0.744141,0.7441407 -0.186035,0.9301757 0.186035,1.4882816 -0.186035,0.186035 H 94.03767 l -3.426147,0.186035 v -0.37207 l -0.558106,0.558105 v 0.186035 l 0.186035,-0.186035 h 0.372071 v 0.37207 l -0.186035,0.186036 0.186035,0.186035 v 1.116211 h -0.186035 q -0.744141,0 -0.744141,-1.116211 h -0.186035 q 0,0.930176 -0.372071,0.930176 v 0.37207 l 0.558106,0.186035 0.186035,-0.186035 q 0,0.37207 0.744141,0.37207 v 0.37207 q 0,0.372071 -0.558106,0.372071 v 0.186035 l 0.558106,0.930176 q 0,1.147217 -1.116211,1.860351 v 0.372071 l 2.046386,-0.372071 0.558106,0.558106 q 0,1.581299 -1.116211,2.232422 h -1.116211 l -2.976562,0.558105 -3.906739,-0.558105 -0.558105,0.186035 q -0.372071,-0.728638 -0.372071,-2.046387 l 1.488282,-1.116211 0.186035,-0.930176 -0.186035,-0.186035 v -0.186035 l 0.186035,-0.186035 V 14.94379 H 83.542187 L 83.914257,9.1767006 83.728222,7.5023842 83.914257,6.0141029 83.728222,5.8280678 V 5.6420326 Q 83.976269,4.7118568 84.658398,4.7118568 V 4.5258217 q 0,-0.3720703 -0.744141,-0.3720703 l 0.186035,-2.2324219 q 0,-0.3720703 -0.558105,-0.3720703 L 82.612011,1.7352943 82.425976,1.1771889 q 0.186035,-2.7905274 0.74414,-2.7905274 z m 0.558106,0.1860352 h 0.186035 l 0.37207,0.3720703 -0.186035,0.18603515 H 83.914257 L 83.728222,-1.055233 Z m 11.053589,0.55810545 -0.186035,0.55810547 0.186035,0.55810547 0.74414,-0.37207031 z m 0.930176,0.18603516 v 0.55810547 l 0.37207,0.37207031 v -0.37207031 h 0.37207 l 0.37207,0.37207031 0.558106,-0.18603515 v -0.18603516 z m 2.790527,1.11621094 V 0.99115372 L 98.874584,0.6190834 V 0.43304825 Z m -9.937378,0.18603515 -0.37207,0.7441406 0.186035,0.5581055 h 0.930176 V 1.7352943 H 88.937206 V 1.5492592 L 89.309277,0.99115372 V 0.80511856 Z m 10.123413,1.6743164 -0.558105,0.7441406 q 0.930175,0.666626 0.930175,1.116211 H 99.43269 L 99.80476,3.7816811 V 2.8515053 Q 99.618725,2.2933998 98.688549,2.2933998 Z m -12.91394,0.9301758 v 0.5581055 h 0.186035 l 0.186035,-0.5581055 z m 3.162597,0.5581055 V 4.3397865 L 88.00703,4.1537514 v 0.3720703 l 1.302247,0.5581055 V 4.897892 L 89.123241,3.7816811 Z M 99.43269,4.7118568 V 4.3397865 h -0.186035 v 0.1860352 l 0.186035,0.5581055 h -0.186035 l 0.186035,0.5581054 h 0.186035 V 5.0839272 h 0.558105 q 0.41858,0 0.55811,0.9301757 l 0.74414,-0.5581054 V 5.2699623 q -0.55811,0 -0.55811,-0.9301758 H 100.5489 V 4.1537514 Z M 89.123241,10.664982 v 0.186035 l 0.372071,0.37207 v -0.186035 z m 0.372071,2.790527 q 0,0.37207 -0.558106,0.37207 v 0.372071 h 0.186035 l 0.744141,-0.372071 z m 11.053588,0.558106 v 0.186035 h 0.37207 l 0.18604,-0.558106 h -0.18604 z m -1.674316,0 0.558106,0.74414 -0.186035,0.558106 v 0.186035 h 0.186035 q 0,-0.558106 0.74414,-0.558106 v -0.558105 l -0.74414,-0.37207 z m -9.937378,0.558105 -0.186035,0.186035 v 0.372071 h 0.186035 l 0.372071,-0.372071 -0.186036,-0.186035 z m 11.797734,0.37207 0.18603,0.558106 h 0.37207 v -0.186035 l -0.37207,-0.372071 z m -0.18604,0.558106 -0.37207,0.930176 v 0.37207 l 0.55811,0.186035 v -0.558105 h 0.37207 v 0.558105 l 0.5581,-0.558105 h 0.18604 v -0.372071 z m -16.634643,1.488281 v 0.930176 h 0.37207 v -0.37207 q 0.372071,0 0.372071,0.558105 h 0.186035 q 0.37207,0 0.37207,-0.558105 -0.356567,-0.852662 -0.74414,-0.930176 h -0.186036 z"
         style="font-size:31.75px;fill:#782121;stroke-width:0.264583"
         id="path896" />
      <path
         d="m 115.55574,-1.9233971 h 2.04638 l 0.37207,0.3720703 v 0.1860352 l -0.18603,0.1860352 0.37207,1.67431637 v 0.37207031 h -0.18604 l 0.18604,1.86035152 v 0.7441407 l -0.18604,5.3950195 0.18604,0.1860352 v 0.1860351 l -0.18604,0.7441406 v 0.9301761 l 0.18604,1.116211 -0.18604,0.186035 v 0.186035 l 0.37207,3.162598 -0.18603,0.558105 q 2.04639,0.418579 2.04639,0.744141 -0.41858,2.418457 -0.74415,2.418457 h -0.5581 l -0.55811,-0.372071 h -0.18603 l -0.55811,0.372071 V 18.91254 h -0.18603 v 0.372071 l 0.18603,0.186035 -2.41845,0.186035 -0.18604,-0.186035 h -0.18603 l -1.11622,0.186035 -0.37207,-0.37207 -0.18603,0.186035 h -0.55811 l -0.37207,-0.37207 0.37207,-0.372071 -0.18603,-0.558105 -0.18604,0.186035 h -0.18603 l -0.74414,-1.674316 q 1.11621,0 1.11621,-1.116211 v -0.558106 l -0.18604,-0.74414 q 0.23255,-0.930176 0.55811,-0.930176 l 0.74414,0.74414 h 0.55811 v -0.37207 h 0.18603 l 1.11621,1.302246 h 0.37207 q 0.38757,-0.07751 0.74414,-0.930176 l -0.37207,-0.558105 -0.18603,0.186035 h -0.18604 q -0.44958,0 -1.67431,-1.674316 l -0.18604,0.186035 h -0.37207 V 12.02924 q 0,-0.372071 0.55811,-0.372071 v -0.37207 h -0.18604 l -0.74414,0.558105 0.18603,0.186036 v 0.186035 l -0.18603,0.186035 h -0.37207 l -0.37207,-0.37207 0.18603,-0.186036 v -0.186035 l -0.37207,-0.37207 V 9.6107826 h 1.11621 l 0.18604,-0.9301758 -1.11621,-1.1162109 0.5581,-0.3720703 -0.18603,-0.9301758 -0.18604,0.1860352 h -0.18603 L 112.2071,6.2621498 V 5.1459389 l 0.74414,-0.3720703 0.18604,0.1860351 h 0.18603 V 4.7738686 q 0,-0.3720704 -0.5581,-0.3720704 L 112.2071,4.5878334 V 4.2157631 l 0.18604,-1.6743164 -0.18604,-0.1860352 q 0.10852,-3.5346679 1.11621,-3.5346679 0,-0.5270996 2.23243,-0.7441407 z m -9.4878,0.3720703 1.30225,0.1860352 0.18603,-0.1860352 1.30225,0.1860352 h 1.30225 l 0.93017,-0.1860352 0.18604,0.1860352 v 0.55810547 q 0,1.44177246 -2.41846,3.16259763 v 0.3720703 h -0.5581 q 0,-0.7441406 -0.37207,-0.7441406 h -0.18604 V 2.913517 h -0.18604 l -0.18603,-0.1860352 h -0.18604 q 0,0.4960938 -0.5581,1.116211 0.74414,0.093018 0.74414,0.5581054 l -0.55811,0.3720704 0.37207,0.7441406 -0.18603,0.1860351 Q 105.3238,5.4870033 105.3238,5.1459389 V 3.0995522 l 0.74414,-0.7441407 q -0.5581,-0.9146728 -0.5581,-3.7207031 z m 13.2085,0 h 0.37207 l 0.18604,0.1860352 0.18603,-0.1860352 h 0.93018 q 1.30224,0.062012 1.30224,0.3720704 l 0.93018,-0.1860352 h 0.5581 l 0.18604,0.1860352 h 0.18603 l -0.37207,6.1391601 q -1.17822,0 -1.86035,0.7441406 L 120.95076,3.0995522 118.90437,0.30902481 V -1.1792564 Z m -13.39453,0.3720704 v 0.74414059 l 0.93017,0.18603515 0.18604,-0.74414062 -0.18604,-0.18603512 z m 6.69726,6.5112304 0.37207,0.3720703 h 0.18604 V 5.331974 Z"
         style="font-size:31.75px;fill:#782121;stroke-width:0.264583"
         id="path898" />
      <path
         d="m 131.30671,-2.1094322 1.30225,0.1860351 1.30225,-0.1860351 0.37207,0.3720703 -0.37207,1.6743164 0.18603,0.18603515 q 0,5.39501955 -1.11621,5.39501955 l -0.37207,0.5581055 q 0.37207,0 0.37207,0.7441406 l 0.18603,0.1860351 h 0.18604 l 0.18603,-0.1860351 0.18604,0.1860351 V 7.7504311 H 133.3531 V 7.1923256 l -0.55811,0.3720703 -0.18603,-0.1860352 v 0.5581055 l 1.30225,0.3720703 -0.18604,0.9301758 v 2.6044917 q 0,0.558106 -0.74414,0.558106 l -0.18604,0.186035 v 0.186035 l 0.18604,0.186035 h 0.18603 l 0.55811,-0.186035 -0.37207,0.558106 0.37207,0.37207 v 1.302246 q 0,1.457276 1.48828,1.674317 v 0.186035 q 0,2.340942 -1.48828,2.790527 l -1.30225,-0.186035 h -1.30224 l -4.46485,0.186035 q -1.30224,-0.37207 -1.30224,-2.604492 l 0.18603,0.186035 h 0.18604 q 0,-0.651123 1.48828,-1.116211 l 0.18603,-3.162598 -0.18603,-0.186035 0.18603,-0.930176 V 8.1225014 q 0,-0.4650879 0.74415,-0.5581055 l -0.18604,-0.9301758 q 0.74414,-0.2790527 0.74414,-0.5581054 l -0.5581,-1.3022461 q -0.74415,0 -0.74415,-0.5581055 l -0.18603,-1.4882813 0.18603,-1.4882812 Q 125.35359,0.7741127 125.35359,0.49505997 V 0.30902481 q 0,-0.93017578 1.11621,-2.23242191 h 1.30225 l 0.18603,0.1860352 0.18604,-0.1860352 h 1.67431 z m 4.09278,0.3720703 h 0.5581 l 1.11621,0.1860351 0.18604,-0.1860351 h 0.18603 l 1.67432,0.3720703 0.55811,-0.1860352 q 3.53466,0.77514653 3.53466,1.86035161 1.30225,1.86035159 1.30225,3.16259769 v 1.3022461 q 0,4.5578613 -2.79053,5.9531254 -1.24023,0.74414 -2.79053,0.930175 v 0.186035 h 2.41846 l 0.18604,0.186036 0.18603,-0.186036 h 0.18604 l 1.67431,4.278809 q 1.16272,0 1.67432,0.930176 v 1.860351 q -0.18604,0.558106 -1.11621,0.558106 h -3.1626 l -2.79053,0.186035 -3.16259,-9.115723 v -0.186035 l 0.18603,-1.1162107 -0.18603,-0.5581055 q 3.34863,-0.4030761 3.34863,-2.7905273 l 0.18603,-1.8603516 -0.18603,-0.7441406 0.18603,-0.5581055 q 0,-1.4417724 -2.60449,-1.86035152 l -0.5581,0.18603512 -0.18604,-0.18603512 V 0.68109512 Z m -5.39502,3.3486328 -0.55811,0.9301758 1.11621,0.3720703 V 2.3554115 h -0.5581 V 1.7973061 h 0.37207 V 1.6112709 Z m -0.74414,2.0463867 v 0.1860352 h 0.37207 V 3.2855873 Z m 3.90673,1.8603516 0.37207,0.3720703 -0.18603,0.1860352 h -0.18604 z m -5.02294,2.7905273 q 0.37207,0 0.37207,0.7441407 h 1.11621 V 8.866642 q -0.37207,-0.3720703 -0.37207,-1.4882813 -0.74414,0 -1.11621,0.9301758 z m 0.5581,-0.5581054 0.37207,0.3720703 -0.18603,0.1860351 h -0.18604 z m -0.93017,4.6508789 v 0.186035 l 0.18603,0.930176 h 0.55811 l -0.18604,-1.116211 -0.18603,0.186035 h -0.18604 z m 0.5581,2.604492 0.18604,0.186035 h 0.18603 l 0.55811,-0.37207 0.18603,0.186035 h 0.18604 v -0.186035 q 0,-0.37207 -0.55811,-0.37207 -0.74414,0.279052 -0.74414,0.558105 z m 0.55811,0.37207 0.37207,0.372071 h 0.18603 v -0.372071 z"
         style="font-size:31.75px;fill:#782121;stroke-width:0.264583"
         id="path900" />
      <path
         d="m 159.89412,-1.9854088 h 0.37207 v 0.1860352 q -0.18604,0.7441406 -0.74414,0.7441406 l 0.18603,1.6743164 h -0.18603 l -0.18604,-0.18603515 h -0.18604 l 0.18604,-0.18603516 v -0.37207031 l -0.18604,0.18603516 h -0.18603 L 158.7779,-0.12505722 V -1.055233 q 0.44959,0 1.11622,-0.9301758 z m -6.69727,0.7441406 h 0.18603 l 0.37208,0.37207035 v 0.18603516 l -0.18604,-0.18603516 h -0.18604 l -0.37207,0.37207032 -0.18603,-0.18603516 v -0.18603516 z m 2.60449,0.1860352 h 0.18604 l 0.37207,0.37207031 -0.18604,0.74414063 0.18604,0.55810546 q -1.27124,0.7596436 -2.04639,2.0463867 l 0.18604,0.1860352 q -0.31006,3.3486328 -0.55811,3.3486328 l 0.18604,0.5581055 -0.18604,5.0229494 q 0,5.348511 3.34863,5.953125 l 0.18604,1.674316 q -0.38757,1.116211 -1.48828,1.116211 -5.70508,0 -8.55762,-7.069336 0,-1.16272 -0.93018,-2.232422 v -1.116211 l 0.37207,-0.5581051 V 9.1767006 L 146.68562,7.316349 q 0,-2.9455566 3.34863,-6.6972656 l 0.93018,-0.74414062 h 0.37207 v 0.55810547 l -0.55811,0.55810547 0.18604,0.93017578 h 0.18603 q 0,-0.7441406 0.37207,-0.7441406 v 1.1162109 h 0.55811 L 151.70857,1.363224 151.8946,1.1771889 h -0.37207 V 0.6190834 h 0.37207 q 0.93018,0.35656739 0.93018,1.6743164 h 0.18603 q 0,-1.42626952 0.55811,-1.86035155 V 0.24701309 l -0.18604,0.18603516 h -0.74414 V 0.24701309 l 0.74414,-0.37207031 h 0.37208 q 0,0.37207031 0.74414,0.37207031 l 0.37207,0.74414063 h 0.18603 l 0.74414,-0.74414063 -0.18603,-0.18603515 v -0.18603516 z m 8.55762,0 q 3.90674,2.1239014 3.90674,5.7670898 h -0.18604 q -0.37207,0 -0.37207,-0.5581054 l -0.74414,0.3720703 v 0.1860351 l 0.18604,0.9301758 -0.18604,0.1860352 0.18604,0.1860351 h 0.37207 V 5.6420326 q 1.11621,0 1.11621,3.534668 l -0.18604,0.1860351 v 0.1860352 l 0.18604,0.5581051 q -0.60462,2.821534 -1.48828,4.836914 h -0.55811 v -0.37207 h -0.18603 v 0.37207 l 0.37207,0.372071 q 0,0.883667 -2.79053,3.534668 h -0.37207 v -0.372071 l -0.37207,0.372071 0.18603,0.558105 q -1.03869,0.930176 -3.7207,1.302246 h -0.37207 l -0.93018,-1.488281 q 0,-0.883667 2.04639,-2.046387 0.69763,0 1.30225,-4.650879 l -0.18604,-2.418457 0.55811,-0.1860348 V 8.9906654 h -0.37207 v -2.418457 q 0,-0.3720703 0.74414,-0.3720703 L 161.56843,5.2699623 V 5.0839272 l 0.18604,-0.1860352 q 0,-2.3874512 -1.30225,-4.09277344 V 0.6190834 l 0.37207,-0.37207031 v 0.18603516 l 0.74414,-0.37207031 0.18604,0.18603515 v 0.18603516 l -0.18604,0.18603515 q 0.37207,0 0.37207,0.5581055 l 1.86035,-0.93017581 q 0,-1.00769043 0.55811,-1.30224609 z m -12.46436,0.18603515 h 0.37207 v 0.18603516 l -0.37207,0.37207031 z m 10.23194,0.37207032 h 0.18603 l 0.37207,0.37207031 v 0.18603516 h -0.5581 z m 2.23242,0.55810547 v 0.18603515 l 0.37207,0.37207031 V -0.31109238 Z M 154.12703,0.99115372 V 1.363224 h 0.18603 l 0.37207,-0.37207028 z m 11.72021,3.34863278 q 0,0.3720703 -0.74414,0.3720703 l -0.18604,0.1860352 v 0.1860352 l 0.37207,0.3720703 v 0.1860351 l -0.18603,0.1860352 v 0.1860351 l 0.18603,0.1860352 h 0.18604 q 0.62012,0 1.30225,-0.5581055 l -0.55811,-1.3022461 z m -15.06885,0.7441407 v 1.1162109 l 0.37207,0.3720703 V 6.3861732 l -0.18603,-1.302246 z m 16.9292,-0.1860352 v 0.1860352 l -0.37207,0.3720703 V 5.2699623 Z m -18.78955,1.1162109 v 0.3720703 h 0.55811 q 0,0.3720704 -0.74414,0.3720704 v 0.1860351 l 0.74414,0.3720703 0.5581,-0.5581054 V 6.2001381 q 0,-0.3720703 -0.5581,-0.3720703 z m 14.88281,1.6743164 v 0.5581055 l 0.55811,-0.5581055 z M 151.3365,9.1767006 v 0.3720703 l 0.37207,0.3720703 V 9.1767006 Z m -0.74414,1.3022464 v 0.186035 q 0.5581,0.480591 0.5581,1.488281 l 0.55811,0.186035 v -0.186035 l -0.18604,-0.558105 0.18604,-1.116211 -0.55811,-0.186035 z m 1.86035,-0.186035 v 0.186035 l 0.37207,0.37207 v -0.186035 z m 13.2085,0.186035 -0.18604,0.186035 v 0.558105 l 1.30225,0.186035 h 0.18603 v -0.37207 q -0.62012,0 -1.30224,-0.558105 z m -0.93018,3.906738 -0.18604,0.186035 0.18604,0.744141 0.5581,-0.558106 z m 0.93018,0.186035 v 0.37207 l 0.37207,0.372071 0.18603,-0.744141 z m -5.20899,3.348633 v 0.186035 l 0.37207,0.558106 -0.5581,0.186035 0.18603,0.186035 v 0.186035 q 0.82166,-0.558105 1.48828,-0.558105 l -0.18603,-0.744141 z"
         style="font-size:31.75px;fill:#782121;stroke-width:0.264583"
         id="path902" />
      <path
         d="m 176.2032,-1.8303795 q 0.85266,0.3565674 0.93017,0.7441406 v 0.1860352 h -0.37207 l -0.74414,-0.5581055 q 0,0.3100586 -1.30224,0.5581055 -0.74414,-0.2790527 -0.74414,-0.5581055 z m -5.02295,0.1860352 h 0.5581 l 0.55811,0.3720703 0.37207,-0.3720703 0.18603,0.1860351 0.18604,-0.1860351 0.18603,0.1860351 v 0.1860352 q -0.41857,0 -0.5581,0.93017576 l 0.18603,0.18603516 h 0.18604 v -0.55810547 h 0.18603 l 0.74415,0.74414063 0.18603,-0.18603516 h 0.18604 l 0.93017,0.37207031 V 0.02997208 q 0,-0.74414063 0.37207,-0.74414063 h 0.18604 l 0.37207,0.37207031 q 1.67431,0 1.67431,-1.11621096 h 0.37207 l 0.55811,0.93017581 -0.18604,0.74414062 0.18604,0.55810547 h -0.18604 l -0.18603,-0.18603515 h -0.18604 v 0.37207031 l 0.37207,0.55810544 -0.37207,0.3720703 0.37207,0.7441407 -0.18603,4.4648437 v 0.3720703 l -0.18604,0.1860352 0.37207,0.9301758 -0.18603,0.9301757 v 5.76709 q 0,1.457275 1.48828,1.674316 v 0.186035 q 0,2.340943 -1.48828,2.790528 l -1.30225,-0.186035 h -1.30224 l -4.46485,0.186035 q -0.99218,0 -1.48828,-2.790528 2.04639,-0.651123 2.04639,-0.930175 l 0.18603,-2.976563 -0.18603,-0.186035 0.18603,-0.930176 V 8.4015541 l -0.18603,-0.7441406 0.18603,-0.7441406 -0.18603,-0.1860352 0.18603,-0.9301758 -0.18603,-3.1625976 0.18603,-1.116211 Q 170.06404,1.0531654 170.06404,0.7741127 V 0.58807755 q 0,-0.93017579 1.11621,-2.23242185 z m 9.48779,0.1860351 1.11621,0.1860352 0.18604,-0.1860352 h 0.18603 l 1.67432,0.3720703 0.5581,-0.1860351 q 0.4806,0.3720703 1.86036,0.3720703 l 0.18603,0.18603515 q 0.55811,0 0.55811,1.11621094 h 0.5581 l -0.18603,0.18603516 v 0.37207031 h 0.18603 V 0.58807755 h 0.37207 q 1.30225,2.15490725 1.30225,3.16259765 v 1.6743164 l -0.37207,1.4882813 -1.11621,-0.3720704 -0.55811,0.7441407 q 1.11621,0.8371582 1.11621,1.6743164 v 0.3720703 l -1.48828,1.4882811 q -0.37207,0 -0.37207,-1.6743163 l -0.5581,-0.3720703 h -0.55811 l -0.55811,0.5581055 v 0.5581055 q 0.93018,0.046509 0.93018,0.5581056 v 0.74414 q 0,0.620118 -2.79053,0.744141 v -0.186035 l -1.86035,0.37207 q -0.88367,0 -1.30224,-1.488281 0,-2.2324219 1.86035,-2.2324219 1.67431,0 1.67431,-4.0927734 L 183.0865,3.56464 183.27253,3.0065346 q 0,-1.4417725 -2.60449,-1.8603516 l -0.5581,0.1860352 -0.18604,-0.5581055 q 0.18604,-2.2324219 0.74414,-2.2324219 z m 3.90674,3.7207032 v 0.3720703 h 0.5581 l 0.18604,-0.7441407 h -0.37207 z m -0.37207,5.953125 0.18603,0.5581054 h 0.55811 V 8.4015541 Z"
         style="font-size:31.75px;fill:#782121;stroke-width:0.264583"
         id="path904" />
      <path
         d="m 191.39607,-2.1869469 1.30224,0.1860352 5.76709,-0.1860352 0.55811,2.23242191 -0.37207,4.09277339 0.37207,3.3486329 h 2.23242 l 1.11621,-0.1860352 2.41846,0.5581055 v 0.7441406 q 0,0.4030762 -2.04639,0.9301758 v 0.3720703 l 0.37207,0.5581057 v 0.186035 h -0.37207 l -0.18603,-0.186035 -0.18604,0.186035 -0.93017,-0.186035 h -2.23242 l -0.18604,0.186035 h -0.18604 v 0.37207 h 0.18604 l -0.18604,2.790528 v 1.116211 l 0.18604,1.488281 q -0.18604,3.317627 -1.30225,3.534668 l -0.93017,-0.186035 h -1.67432 q -0.37207,0 -0.37207,-0.558106 h -0.18603 q 0,0.744141 -1.11621,0.744141 0,-0.930176 -0.37208,-0.930176 h -0.18603 v 0.186035 h 0.37207 v 0.186035 l -0.55811,0.558106 q -2.23242,0 -2.23242,-2.046387 v -0.186035 q 0.62012,0 1.30225,-0.558106 l -0.18604,-2.232421 v -0.186036 l 0.18604,-1.674316 -0.37207,-1.674316 0.18603,-2.7905278 V 8.417057 h 0.37207 V 8.2310219 l -0.5581,-0.7441406 0.18603,-5.0229493 h 0.18604 l 1.11621,0.7441407 h 0.18603 l 0.18604,-1.3022461 V 1.7197914 h -1.11621 V 2.0918617 L 191.76814,1.7197914 V 0.41754532 h -0.37207 V 0.23151016 l -0.18604,0.18603516 h -0.37207 q -0.37207,0 -0.37207,-0.55810547 z m 9.85986,0.1860352 0.18604,0.1860351 2.79052,-0.1860351 h 1.30225 l 0.18604,0.1860351 0.5581,-0.1860351 q 1.11621,0 1.11621,3.534668 -0.13952,1.0697021 -1.11621,2.0463867 v 0.3720703 h 0.55811 v 0.3720703 l -1.48828,0.5581055 h -0.18604 q -0.24805,0 -0.93018,-2.6044922 l -0.18603,-0.1860352 q 0,-0.7441406 -4.27881,-1.67431638 L 199.58162,0.23151016 V 0.04547501 q 0.37207,-0.37207032 0.37207,-1.67431641 z m -3.90674,3.534668 v 0.1860351 l 0.55811,0.5581055 h 0.5581 l -0.18603,-1.116211 h -0.55811 z m -2.04638,3.9067382 0.18603,0.1860352 -0.18603,0.1860351 v 0.9301758 h 0.37207 V 6.3706703 h 0.18603 l 0.18604,0.1860352 0.74414,-0.5581055 q -0.74414,-0.2790527 -0.74414,-0.5581055 l 0.18603,-0.1860351 V 5.0684242 h -0.18603 z m 2.97656,3.1625977 -0.37207,0.7441406 v 0.5581055 l 0.93017,0.1860347 0.55811,-0.1860347 V 8.6030922 Z m -5.76709,0.3720703 -0.37207,1.1162105 0.5581,0.372071 h 0.55811 l 0.37207,-0.372071 V 9.1611977 l -0.93018,-0.1860352 z m 3.34863,4.0927735 v 0.37207 h 1.11621 l 0.37207,-0.37207 V 12.50983 l -0.5581,-0.558105 h -0.37207 q -0.55811,0.186035 -0.55811,1.116211 z m 9.85987,0 h 0.5581 l 0.18604,0.744141 h 0.5581 l -0.18603,-0.186036 v -0.37207 h 0.18603 l 0.37207,0.37207 v 2.418457 l -0.18603,1.674317 0.18603,1.302246 -0.5581,0.37207 h -1.30225 l -1.48828,-0.186035 q -3.03858,0.248047 -3.53467,0.744141 -0.41858,0 -0.5581,-2.232422 3.84472,-1.441773 4.83691,-3.534668 h 0.18603 l 0.18604,0.186035 v -0.186035 l -0.37207,-0.558106 z m -11.90625,2.418457 v 0.186035 l 0.37207,0.37207 q 0,-0.37207 0.5581,-0.37207 l -0.37207,-0.37207 z m 9.67382,0.930176 h 0.55811 v -0.372071 h -0.18604 z m -9.67382,0 v 0.186035 h 0.93017 v -0.186035 z m 9.85986,0.37207 0.5581,0.744141 0.18604,-0.186035 v -0.744141 z"
         style="font-size:31.75px;fill:#782121;stroke-width:0.264583"
         id="path906" />
    </g>
    <text
       xml:space="preserve"
       style="font-size:9.87777px;line-height:1.25;font-family:'Stardos Stencil';-inkscape-font-specification:'Stardos Stencil';text-align:center;text-anchor:middle;stroke-width:0.264583"
       x="43.427929"
       y="268.83893"
       id="text911"><tspan
         sodipodi:role="line"
         id="tspan909"
         x="43.427929"
         y="268.83893"
         style="font-size:8.46667px;text-align:center;text-anchor:middle;stroke-width:0.264583">Mission</tspan><tspan
         sodipodi:role="line"
         x="43.427929"
         y="281.18613"
         style="font-size:8.46667px;text-align:center;text-anchor:middle;stroke-width:0.264583"
         id="tspan913">Level 1</tspan><tspan
         sodipodi:role="line"
         x="43.427929"
         y="293.53336"
         style="font-size:8.46667px;text-align:center;text-anchor:middle;stroke-width:0.264583"
         id="tspan919">≥18 pts</tspan><tspan
         sodipodi:role="line"
         x="43.427929"
         y="305.88055"
         style="font-size:8.46667px;text-align:center;text-anchor:middle;stroke-width:0.264583"
         id="tspan921">Win:</tspan><tspan
         sodipodi:role="line"
         x="43.427929"
         y="318.22778"
         style="font-size:8.46667px;text-align:center;text-anchor:middle;stroke-width:0.264583"
         id="tspan923">+1 Card</tspan><tspan
         sodipodi:role="line"
         x="43.427929"
         y="330.57498"
         style="font-size:8.46667px;text-align:center;text-anchor:middle;stroke-width:0.264583"
         id="tspan925">+1 Surveillance</tspan><tspan
         sodipodi:role="line"
         x="43.427929"
         y="342.92221"
         style="text-align:center;text-anchor:middle;stroke-width:0.264583"
         id="tspan917" /><tspan
         sodipodi:role="line"
         x="43.427929"
         y="355.26941"
         style="text-align:center;text-anchor:middle;stroke-width:0.264583"
         id="tspan915" /></text>
    <text
       xml:space="preserve"
       style="font-size:9.87777px;line-height:1.25;font-family:'Stardos Stencil';-inkscape-font-specification:'Stardos Stencil';text-align:center;text-anchor:middle;stroke-width:0.264583"
       x="119.8925"
       y="268.83893"
       id="text965"><tspan
         sodipodi:role="line"
         id="tspan949"
         x="119.8925"
         y="268.83893"
         style="font-size:8.46667px;text-align:center;text-anchor:middle;stroke-width:0.264583">Mission</tspan><tspan
         sodipodi:role="line"
         x="119.8925"
         y="281.18613"
         style="font-size:8.46667px;text-align:center;text-anchor:middle;stroke-width:0.264583"
         id="tspan951">Level 1</tspan><tspan
         sodipodi:role="line"
         x="119.8925"
         y="293.53336"
         style="font-size:8.46667px;text-align:center;text-anchor:middle;stroke-width:0.264583"
         id="tspan953">≥18 pts</tspan><tspan
         sodipodi:role="line"
         x="119.8925"
         y="305.88055"
         style="font-size:8.46667px;text-align:center;text-anchor:middle;stroke-width:0.264583"
         id="tspan955">Win:</tspan><tspan
         sodipodi:role="line"
         x="119.8925"
         y="318.22778"
         style="font-size:8.46667px;text-align:center;text-anchor:middle;stroke-width:0.264583"
         id="tspan957">+1 Card</tspan><tspan
         sodipodi:role="line"
         x="119.8925"
         y="330.57498"
         style="font-size:8.46667px;text-align:center;text-anchor:middle;stroke-width:0.264583"
         id="tspan959">+1 Surveillance</tspan><tspan
         sodipodi:role="line"
         x="119.8925"
         y="342.92221"
         style="text-align:center;text-anchor:middle;stroke-width:0.264583"
         id="tspan961" /><tspan
         sodipodi:role="line"
         x="119.8925"
         y="355.26941"
         style="text-align:center;text-anchor:middle;stroke-width:0.264583"
         id="tspan963" /></text>
    <text
       xml:space="preserve"
       style="font-size:9.87777px;line-height:1.25;font-family:'Stardos Stencil';-inkscape-font-specification:'Stardos Stencil';text-align:center;text-anchor:middle;stroke-width:0.264583"
       x="196.3571"
       y="268.83893"
       id="text983"><tspan
         sodipodi:role="line"
         id="tspan967"
         x="196.3571"
         y="268.83893"
         style="font-size:8.46667px;text-align:center;text-anchor:middle;stroke-width:0.264583">Mission</tspan><tspan
         sodipodi:role="line"
         x="196.3571"
         y="281.18613"
         style="font-size:8.46667px;text-align:center;text-anchor:middle;stroke-width:0.264583"
         id="tspan969">Level 1</tspan><tspan
         sodipodi:role="line"
         x="196.3571"
         y="293.53336"
         style="font-size:8.46667px;text-align:center;text-anchor:middle;stroke-width:0.264583"
         id="tspan971">≥18 pts</tspan><tspan
         sodipodi:role="line"
         x="196.3571"
         y="305.88055"
         style="font-size:8.46667px;text-align:center;text-anchor:middle;stroke-width:0.264583"
         id="tspan973">Win:</tspan><tspan
         sodipodi:role="line"
         x="196.3571"
         y="318.22778"
         style="font-size:8.46667px;text-align:center;text-anchor:middle;stroke-width:0.264583"
         id="tspan975">+1 Card</tspan><tspan
         sodipodi:role="line"
         x="196.3571"
         y="330.57498"
         style="font-size:8.46667px;text-align:center;text-anchor:middle;stroke-width:0.264583"
         id="tspan977">+1 Surveillance</tspan><tspan
         sodipodi:role="line"
         x="196.3571"
         y="342.92221"
         style="text-align:center;text-anchor:middle;stroke-width:0.264583"
         id="tspan979" /><tspan
         sodipodi:role="line"
         x="196.3571"
         y="355.26941"
         style="text-align:center;text-anchor:middle;stroke-width:0.264583"
         id="tspan981" /></text>
    <text
       xml:space="preserve"
       style="font-size:9.87777px;line-height:1.25;font-family:'Stardos Stencil';-inkscape-font-specification:'Stardos Stencil';text-align:center;text-anchor:middle;stroke-width:0.264583"
       x="82.057098"
       y="169.35558"
       id="text1001"><tspan
         sodipodi:role="line"
         id="tspan985"
         x="82.057098"
         y="169.35558"
         style="font-size:8.46667px;text-align:center;text-anchor:middle;stroke-width:0.264583">Mission</tspan><tspan
         sodipodi:role="line"
         x="82.057098"
         y="181.70279"
         style="font-size:8.46667px;text-align:center;text-anchor:middle;stroke-width:0.264583"
         id="tspan987">Level 2</tspan><tspan
         sodipodi:role="line"
         x="82.057098"
         y="194.05"
         style="font-size:8.46667px;text-align:center;text-anchor:middle;stroke-width:0.264583"
         id="tspan989">≥26 pts</tspan><tspan
         sodipodi:role="line"
         x="82.057098"
         y="206.39722"
         style="font-size:8.46667px;text-align:center;text-anchor:middle;stroke-width:0.264583"
         id="tspan991">Win:</tspan><tspan
         sodipodi:role="line"
         x="82.057098"
         y="218.74443"
         style="font-size:8.46667px;text-align:center;text-anchor:middle;stroke-width:0.264583"
         id="tspan993">+1 Card</tspan><tspan
         sodipodi:role="line"
         x="82.057098"
         y="231.09164"
         style="font-size:8.46667px;text-align:center;text-anchor:middle;stroke-width:0.264583"
         id="tspan995">+1 Surveillance</tspan><tspan
         sodipodi:role="line"
         x="82.057098"
         y="243.43886"
         style="text-align:center;text-anchor:middle;stroke-width:0.264583"
         id="tspan997" /><tspan
         sodipodi:role="line"
         x="82.057098"
         y="255.78607"
         style="text-align:center;text-anchor:middle;stroke-width:0.264583"
         id="tspan999" /></text>
    <text
       xml:space="preserve"
       style="font-size:9.87777px;line-height:1.25;font-family:'Stardos Stencil';-inkscape-font-specification:'Stardos Stencil';text-align:center;text-anchor:middle;stroke-width:0.264583"
       x="157.72792"
       y="169.35558"
       id="text1019"><tspan
         sodipodi:role="line"
         id="tspan1003"
         x="157.72792"
         y="169.35558"
         style="font-size:8.46667px;text-align:center;text-anchor:middle;stroke-width:0.264583">Mission</tspan><tspan
         sodipodi:role="line"
         x="157.72792"
         y="181.70279"
         style="font-size:8.46667px;text-align:center;text-anchor:middle;stroke-width:0.264583"
         id="tspan1005">Level 2</tspan><tspan
         sodipodi:role="line"
         x="157.72792"
         y="194.05"
         style="font-size:8.46667px;text-align:center;text-anchor:middle;stroke-width:0.264583"
         id="tspan1007">≥26 pts</tspan><tspan
         sodipodi:role="line"
         x="157.72792"
         y="206.39722"
         style="font-size:8.46667px;text-align:center;text-anchor:middle;stroke-width:0.264583"
         id="tspan1009">Win:</tspan><tspan
         sodipodi:role="line"
         x="157.72792"
         y="218.74443"
         style="font-size:8.46667px;text-align:center;text-anchor:middle;stroke-width:0.264583"
         id="tspan1011">+1 Card</tspan><tspan
         sodipodi:role="line"
         x="157.72792"
         y="231.09164"
         style="font-size:8.46667px;text-align:center;text-anchor:middle;stroke-width:0.264583"
         id="tspan1013">+1 Surveillance</tspan><tspan
         sodipodi:role="line"
         x="157.72792"
         y="243.43886"
         style="text-align:center;text-anchor:middle;stroke-width:0.264583"
         id="tspan1015" /><tspan
         sodipodi:role="line"
         x="157.72792"
         y="255.78607"
         style="text-align:center;text-anchor:middle;stroke-width:0.264583"
         id="tspan1017" /></text>
    <text
       xml:space="preserve"
       style="font-size:9.87777px;line-height:1.25;font-family:'Stardos Stencil';-inkscape-font-specification:'Stardos Stencil';text-align:center;text-anchor:middle;stroke-width:0.264583"
       x="119.89251"
       y="76.085129"
       id="text1039"><tspan
         sodipodi:role="line"
         x="119.89251"
         y="76.085129"
         style="font-size:8.46667px;text-align:center;text-anchor:middle;stroke-width:0.264583"
         id="tspan1025">BIG HIT</tspan><tspan
         sodipodi:role="line"
         x="119.89251"
         y="88.432343"
         style="font-size:8.46667px;text-align:center;text-anchor:middle;stroke-width:0.264583"
         id="tspan1027">≥34 pts</tspan><tspan
         sodipodi:role="line"
         x="119.89251"
         y="100.77956"
         style="font-size:8.46667px;text-align:center;text-anchor:middle;stroke-width:0.264583"
         id="tspan1029">Win:</tspan><tspan
         sodipodi:role="line"
         x="119.89251"
         y="113.12677"
         style="font-size:8.46667px;text-align:center;text-anchor:middle;stroke-width:0.264583"
         id="tspan1033">YOU WIN</tspan><tspan
         sodipodi:role="line"
         x="119.89251"
         y="125.47398"
         style="font-size:8.46667px;text-align:center;text-anchor:middle;stroke-width:0.264583"
         id="tspan1045">THE GAME</tspan><tspan
         sodipodi:role="line"
         x="119.89251"
         y="137.8212"
         style="text-align:center;text-anchor:middle;stroke-width:0.264583"
         id="tspan1035" /><tspan
         sodipodi:role="line"
         x="119.89251"
         y="150.16841"
         style="text-align:center;text-anchor:middle;stroke-width:0.264583"
         id="tspan1037" /></text>
  </g>
</svg>
